<mxfile host="app.diagrams.net" modified="2023-12-15T14:05:01.846Z" agent="5.0 (Windows)" etag="7rtRJG99rKwQQbFjBtZ3" version="20.8.13" type="github">
  <diagram name="Strona-1" id="_t40CgJyZJtXVZXZAgYF">
    <mxGraphModel dx="989" dy="494" grid="1" gridSize="10" guides="1" tooltips="1" connect="1" arrows="1" fold="1" page="1" pageScale="1" pageWidth="827" pageHeight="1169" math="0" shadow="0">
      <root>
        <mxCell id="0" />
        <mxCell id="1" parent="0" />
        <mxCell id="AmnBBp1fm2Mw9S4xVcrF-5" value="" style="rounded=0;whiteSpace=wrap;html=1;rotation=-15;" vertex="1" parent="1">
          <mxGeometry x="286" y="281" width="30" height="80" as="geometry" />
        </mxCell>
        <mxCell id="AmnBBp1fm2Mw9S4xVcrF-1" value="" style="rounded=0;whiteSpace=wrap;html=1;" vertex="1" parent="1">
          <mxGeometry x="250" y="430" width="120" height="60" as="geometry" />
        </mxCell>
        <mxCell id="AmnBBp1fm2Mw9S4xVcrF-2" value="" style="rounded=0;whiteSpace=wrap;html=1;" vertex="1" parent="1">
          <mxGeometry x="295" y="350" width="30" height="80" as="geometry" />
        </mxCell>
        <mxCell id="AmnBBp1fm2Mw9S4xVcrF-3" value="" style="ellipse;whiteSpace=wrap;html=1;aspect=fixed;" vertex="1" parent="1">
          <mxGeometry x="295" y="339" width="30" height="30" as="geometry" />
        </mxCell>
      </root>
    </mxGraphModel>
  </diagram>
</mxfile>
